<?xml version="1.0" encoding="UTF-8"?>
<svg width="58px" height="58px" viewBox="0 0 58 58" version="1.1" xmlns="http://www.w3.org/2000/svg" xmlns:xlink="http://www.w3.org/1999/xlink">
    <!-- Generator: Sketch 50.2 (55047) - http://www.bohemiancoding.com/sketch -->
    <title>Happy Face Icon</title>
    <desc>Created with Sketch.</desc>
    <defs></defs>
    <g id="Symbols" stroke="none" stroke-width="1" fill="none" fill-rule="evenodd">
        <g id="Free-Cheat-Sheet" transform="translate(-741.000000, -1027.000000)" fill="#231F20">
            <g id="Icons+Text">
                <g transform="translate(196.000000, 1027.000000)">
                    <g id="4" transform="translate(509.000000, 0.000000)">
                        <g id="Happy-Face-Icon" transform="translate(36.000000, 0.000000)">
                            <path d="M29,55.5833333 C14.3417083,55.5833333 2.41666667,43.6582917 2.41666667,29 C2.41666667,14.3417083 14.3417083,2.41666667 29,2.41666667 C43.6582917,2.41666667 55.5833333,14.3417083 55.5833333,29 C55.5833333,43.6582917 43.6582917,55.5833333 29,55.5833333 M29,0 C13.010125,0 0,13.010125 0,29 C0,44.989875 13.010125,58 29,58 C44.989875,58 58,44.989875 58,29 C58,13.010125 44.989875,0 29,0" id="Fill-190"></path>
                            <path d="M29,48.3333333 C20.078875,48.3333333 12.7479167,41.3914583 12.125625,32.625 L45.874375,32.625 C45.2520833,41.3914583 37.921125,48.3333333 29,48.3333333 M47.125,30.2083333 L10.875,30.2083333 C10.208,30.2083333 9.66666667,30.7496667 9.66666667,31.4166667 C9.66666667,42.0765833 18.3400833,50.75 29,50.75 C39.6599167,50.75 48.3333333,42.0765833 48.3333333,31.4166667 C48.3333333,30.7496667 47.792,30.2083333 47.125,30.2083333" id="Fill-191"></path>
                            <path d="M13.2916667,25.375 C13.9586667,25.375 14.5,24.8336667 14.5,24.1666667 C14.5,22.1680833 16.1264167,20.5416667 18.125,20.5416667 C20.1235833,20.5416667 21.75,22.1680833 21.75,24.1666667 C21.75,24.8336667 22.2913333,25.375 22.9583333,25.375 C23.6253333,25.375 24.1666667,24.8336667 24.1666667,24.1666667 C24.1666667,20.8352917 21.456375,18.125 18.125,18.125 C14.793625,18.125 12.0833333,20.8352917 12.0833333,24.1666667 C12.0833333,24.8336667 12.6246667,25.375 13.2916667,25.375" id="Fill-192"></path>
                            <path d="M35.0416667,25.375 C35.7086667,25.375 36.25,24.8336667 36.25,24.1666667 C36.25,22.1680833 37.8764167,20.5416667 39.875,20.5416667 C41.8735833,20.5416667 43.5,22.1680833 43.5,24.1666667 C43.5,24.8336667 44.0413333,25.375 44.7083333,25.375 C45.3753333,25.375 45.9166667,24.8336667 45.9166667,24.1666667 C45.9166667,20.8352917 43.206375,18.125 39.875,18.125 C36.543625,18.125 33.8333333,20.8352917 33.8333333,24.1666667 C33.8333333,24.8336667 34.3746667,25.375 35.0416667,25.375" id="Fill-193"></path>
                        </g>
                    </g>
                </g>
            </g>
        </g>
    </g>
</svg>