<?xml version="1.0" encoding="UTF-8"?>
<svg width="56px" height="58px" viewBox="0 0 56 58" version="1.1" xmlns="http://www.w3.org/2000/svg" xmlns:xlink="http://www.w3.org/1999/xlink">
    <!-- Generator: Sketch 50.2 (55047) - http://www.bohemiancoding.com/sketch -->
    <title>Bulb Icon</title>
    <desc>Created with Sketch.</desc>
    <defs></defs>
    <g id="Symbols" stroke="none" stroke-width="1" fill="none" fill-rule="evenodd">
        <g id="Free-Cheat-Sheet" transform="translate(-573.000000, -1027.000000)" fill="#231F20">
            <g id="Icons+Text">
                <g transform="translate(196.000000, 1027.000000)">
                    <g id="3" transform="translate(340.000000, 0.000000)">
                        <g id="Bulb-Icon" transform="translate(37.000000, 0.000000)">
                            <path d="M31.3068182,41.7062182 C30.7255,41.8564909 30.3181818,42.3811273 30.3181818,42.9822182 L30.3181818,44.8184455 L25.0454545,44.8184455 L25.0454545,42.9822182 C25.0454545,42.3811273 24.6381364,41.8564909 24.0568182,41.7062182 C17.6544091,40.0558545 13.1818182,34.2888091 13.1818182,27.6820818 C13.1818182,19.6859909 19.6870455,13.1820818 27.6818182,13.1820818 C35.6765909,13.1820818 42.1818182,19.6859909 42.1818182,27.6820818 C42.1818182,34.2874909 37.7092273,40.0545364 31.3068182,41.7062182 M27.6818182,10.5457182 C18.2330909,10.5457182 10.5454545,18.2320364 10.5454545,27.6820818 C10.5454545,35.1456273 15.3739545,41.7049 22.4090909,43.9721727 L22.4090909,46.1366273 C22.4090909,46.8642636 22.9983182,47.4548091 23.7272727,47.4548091 L31.6363636,47.4548091 C32.3653182,47.4548091 32.9545455,46.8642636 32.9545455,46.1366273 L32.9545455,43.9721727 C39.9896818,41.7022636 44.8181818,35.1443091 44.8181818,27.6820818 C44.8181818,18.2320364 37.1305455,10.5457182 27.6818182,10.5457182" id="Fill-3820"></path>
                            <path d="M29,55.3636364 L26.3636364,55.3636364 C25.6346818,55.3636364 25.0454545,55.9541818 25.0454545,56.6818182 C25.0454545,57.4094545 25.6346818,58 26.3636364,58 L29,58 C29.7289545,58 30.3181818,57.4094545 30.3181818,56.6818182 C30.3181818,55.9541818 29.7289545,55.3636364 29,55.3636364" id="Fill-3821"></path>
                            <path d="M31.6363636,50.0909091 L23.7272727,50.0909091 C22.9983182,50.0909091 22.4090909,50.6814545 22.4090909,51.4090909 C22.4090909,52.1367273 22.9983182,52.7272727 23.7272727,52.7272727 L31.6363636,52.7272727 C32.3653182,52.7272727 32.9545455,52.1367273 32.9545455,51.4090909 C32.9545455,50.6814545 32.3653182,50.0909091 31.6363636,50.0909091" id="Fill-3822"></path>
                            <path d="M27.6818182,7.90909091 C28.4107727,7.90909091 29,7.31854545 29,6.59090909 L29,1.31818182 C29,0.590545455 28.4107727,0 27.6818182,0 C26.9528636,0 26.3636364,0.590545455 26.3636364,1.31818182 L26.3636364,6.59090909 C26.3636364,7.31854545 26.9528636,7.90909091 27.6818182,7.90909091" id="Fill-3823"></path>
                            <path d="M54.0454545,26.3636364 L48.7727273,26.3636364 C48.0437727,26.3636364 47.4545455,26.9541818 47.4545455,27.6818182 C47.4545455,28.4094545 48.0437727,29 48.7727273,29 L54.0454545,29 C54.7744091,29 55.3636364,28.4094545 55.3636364,27.6818182 C55.3636364,26.9541818 54.7744091,26.3636364 54.0454545,26.3636364" id="Fill-3824"></path>
                            <path d="M6.59090909,26.3636364 L1.31818182,26.3636364 C0.589227273,26.3636364 0,26.9541818 0,27.6818182 C0,28.4094545 0.589227273,29 1.31818182,29 L6.59090909,29 C7.31986364,29 7.90909091,28.4094545 7.90909091,27.6818182 C7.90909091,26.9541818 7.31986364,26.3636364 6.59090909,26.3636364" id="Fill-3825"></path>
                            <path d="M11.8339773,13.7031591 C12.0910227,13.9602045 12.4284773,14.0893864 12.7659318,14.0893864 C13.1033864,14.0893864 13.4408409,13.9602045 13.6978864,13.7031591 C14.2132955,13.1890682 14.2132955,12.3546591 13.6978864,11.83925 L8.10484091,6.24488636 C7.58943182,5.72947727 6.75502273,5.72947727 6.24093182,6.24488636 C5.72552273,6.75897727 5.72552273,7.59338636 6.24093182,8.10879545 L11.8339773,13.7031591 Z" id="Fill-3826"></path>
                            <path d="M42.5924318,14.0893864 C42.9298864,14.0893864 43.2673409,13.9602045 43.5243864,13.7031591 L49.1174318,8.10879545 C49.6328409,7.59338636 49.6328409,6.75897727 49.1174318,6.24488636 C48.6033409,5.72947727 47.7689318,5.72947727 47.2535227,6.24488636 L41.6604773,11.83925 C41.1450682,12.3546591 41.1450682,13.1890682 41.6604773,13.7031591 C41.9175227,13.9602045 42.2549773,14.0893864 42.5924318,14.0893864" id="Fill-3827"></path>
                        </g>
                    </g>
                </g>
            </g>
        </g>
    </g>
</svg>