<?xml version="1.0" encoding="UTF-8"?>
<svg width="44px" height="60px" viewBox="0 0 44 60" version="1.1" xmlns="http://www.w3.org/2000/svg" xmlns:xlink="http://www.w3.org/1999/xlink">
    <!-- Generator: sketchtool 50.2 (55047) - http://www.bohemiancoding.com/sketch -->
    <title>80A21E3B-F592-412E-A270-D47D341A0854</title>
    <desc>Created with sketchtool.</desc>
    <defs></defs>
    <g id="Page-1" stroke="none" stroke-width="1" fill="none" fill-rule="evenodd" stroke-linecap="round" stroke-linejoin="round">
        <g id="HCH_Our-Book-Page" transform="translate(-987.000000, -2759.000000)" stroke="#231F20" stroke-width="2">
            <g id="What's-Included" transform="translate(120.000000, 2314.000000)">
                <g id="Group-4-Copy">
                    <g id="Group-10" transform="translate(100.000000, 250.000000)">
                        <g id="list_icon" transform="translate(768.000000, 196.000000)">
                            <polyline id="Stroke-2064" points="38.956 6 42 6 42 58 0 58 0 6 3.652 6"></polyline>
                            <path d="M26.348,6 C26.348,3.215 24.091,0 21.305,0 C18.52,0 16.261,3.215 16.261,6 L8,6 L8,10.087 L34,10.087 L34,6 L26.348,6 L26.348,6 Z" id="Stroke-2065"></path>
                            <polyline id="Stroke-2066" points="38 10 38 53.913 4 53.913 4 10"></polyline>
                            <path d="M16,20 L31.13,20" id="Stroke-2067"></path>
                            <path d="M16,28 L31.13,28" id="Stroke-2068"></path>
                            <path d="M16,36 L31.13,36" id="Stroke-2069"></path>
                            <path d="M16,44 L31.13,44" id="Stroke-2070"></path>
                            <path d="M10,20 L11.261,20" id="Stroke-2071"></path>
                            <path d="M10,28 L11.261,28" id="Stroke-2072"></path>
                            <path d="M10,36 L11.261,36" id="Stroke-2073"></path>
                            <path d="M10,44 L11.261,44" id="Stroke-2074"></path>
                        </g>
                    </g>
                </g>
            </g>
        </g>
    </g>
</svg>