<?xml version="1.0" encoding="UTF-8"?>
<svg width="40px" height="60px" viewBox="0 0 40 60" version="1.1" xmlns="http://www.w3.org/2000/svg" xmlns:xlink="http://www.w3.org/1999/xlink">
    <!-- Generator: Sketch 50.2 (55047) - http://www.bohemiancoding.com/sketch -->
    <title>menu_icon</title>
    <desc>Created with Sketch.</desc>
    <defs></defs>
    <g id="Page-1" stroke="none" stroke-width="1" fill="none" fill-rule="evenodd">
        <g id="HCH_App" transform="translate(-408.000000, -4468.000000)" fill="#231F20">
            <g id="Group-4-Copy" transform="translate(120.000000, 3998.000000)">
                <g id="Group-10" transform="translate(100.000000, 250.000000)">
                    <g id="menu_icon" transform="translate(188.000000, 220.000000)">
                        <g id="Menu-icon">
                            <path d="M38.75,10 C38.67625,10 38.675,10 6.1825,13.74875 C4.14625,13.71375 2.5,12.045 2.5,10 C2.5,7.32875 2.5,7.11 13.89,5.55375 C18.62125,4.90875 25.1025,4.02375 33.965,2.48125 C34.645,2.36375 35.1,1.71625 34.98125,1.035 C34.86375,0.35625 34.22625,-0.0975 33.535,0.01875 C24.71875,1.5525 18.265,2.43375 13.5525,3.0775 C2.60125,4.5725 0,4.9275 0,10 C0,13.44625 2.80375,16.25 6.25,16.25 C6.2975,16.25 6.345,16.2475 6.3925,16.2425 C6.3925,16.2425 31.2875,13.36875 37.5,12.6525 L37.5,53.89625 L8.68,57.49875 C7.96,57.48125 2.5,57.1475 2.5,51.25 L2.5,20 C2.5,19.31 1.94125,18.75 1.25,18.75 C0.55875,18.75 0,19.31 0,20 L0,51.25 C0,58.17125 5.72375,60 8.75,60 C8.80125,60 8.85375,59.9975 8.905,59.99 L38.905,56.24 C39.53,56.1625 40,55.63125 40,55 L40,11.25 C40,10.56 39.44125,10 38.75,10" id="Fill-4018"></path>
                            <path d="M6.261,10.163625 C6.34225,10.793625 6.87975,11.251125 7.4985,11.251125 C7.55225,11.251125 7.60725,11.247375 7.661,11.241125 L36.411,7.491125 C37.096,7.402375 37.57975,6.773625 37.4885,6.089875 C37.39975,5.403625 36.756,4.914875 36.0885,5.012375 L7.3385,8.762375 C6.6535,8.851125 6.171,9.477375 6.261,10.163625" id="Fill-4019"></path>
                        </g>
                    </g>
                </g>
            </g>
        </g>
    </g>
</svg>