<?xml version="1.0" encoding="UTF-8"?>
<svg width="48px" height="48px" viewBox="0 0 48 48" version="1.1" xmlns="http://www.w3.org/2000/svg" xmlns:xlink="http://www.w3.org/1999/xlink">
    <!-- Generator: Sketch 50.2 (55047) - http://www.bohemiancoding.com/sketch -->
    <title>Fill 1</title>
    <desc>Created with Sketch.</desc>
    <defs></defs>
    <g id="Symbols" stroke="none" stroke-width="1" fill="none" fill-rule="evenodd" opacity="0.800000012">
        <g id="My-Story_Mobile" transform="translate(-158.000000, -276.000000)" fill="#FFFFFF">
            <g id="My-Story">
                <g id="Group-2" transform="translate(0.000000, 198.000000)">
                    <path d="M169.937499,81.2187539 C173.625015,79.072904 177.645815,78 181.999997,78 C186.354185,78 190.36977,79.072904 194.046877,81.2187539 C197.723977,83.3645969 200.635403,86.2760228 202.781246,89.9531228 C204.927096,93.6302297 206,97.6458146 206,102.000003 C206,106.354185 204.927096,110.36977 202.781246,114.046877 C200.635403,117.723977 197.723977,120.635406 194.046877,122.78125 C190.36977,124.927094 186.354185,126 181.999997,126 C177.645815,126 173.63023,124.927094 169.953123,122.78125 C166.276023,120.635406 163.364594,117.723977 161.21875,114.046877 C159.072906,110.36977 158,106.354185 158,102.000003 C158,97.6458146 159.072906,93.6302297 161.21875,89.9531228 C163.364594,86.2760228 166.270815,83.3645969 169.937499,81.2187539 Z M193.999998,103.718748 C194.666671,103.343751 194.999997,102.770836 194.999997,102.000003 C194.999997,101.229164 194.666671,100.656256 193.999998,100.281252 L177.000002,90.2812477 C176.354161,89.8854188 175.687502,89.8749958 174.999997,90.2499997 C174.333331,90.6458357 173.999998,91.2291667 173.999998,91.9999997 L173.999998,112 C173.999998,112.77084 174.333331,113.354164 174.999997,113.75 C175.333337,113.91667 175.666663,113.999998 176.000003,113.999998 C176.354168,113.999998 176.687501,113.906254 177.000002,113.718752 L193.999998,103.718748 Z" id="Fill-1"></path>
                </g>
            </g>
        </g>
    </g>
</svg>