<?xml version="1.0" encoding="UTF-8"?>
<svg width="49px" height="58px" viewBox="0 0 49 58" version="1.1" xmlns="http://www.w3.org/2000/svg" xmlns:xlink="http://www.w3.org/1999/xlink">
    <!-- Generator: Sketch 50.2 (55047) - http://www.bohemiancoding.com/sketch -->
    <title>Apple Icon</title>
    <desc>Created with Sketch.</desc>
    <defs></defs>
    <g id="Symbols" stroke="none" stroke-width="1" fill="none" fill-rule="evenodd">
        <g id="Free-Cheat-Sheet" transform="translate(-406.000000, -1027.000000)" fill="#231F20">
            <g id="Icons+Text">
                <g transform="translate(196.000000, 1027.000000)">
                    <g id="2" transform="translate(169.000000, 0.000000)">
                        <g id="Apple-Icon" transform="translate(41.000000, 0.000000)">
                            <path d="M32.625,55.5833333 C28.8380833,55.5833333 28.1179167,54.9405 27.4823333,54.3737917 C26.7150417,53.689875 25.984,53.1666667 24.1666667,53.1666667 C22.3493333,53.1666667 21.6182917,53.689875 20.851,54.3737917 C20.2154167,54.9405 19.49525,55.5833333 15.7083333,55.5833333 C9.41775,55.5833333 2.41666667,41.8989583 2.41666667,32.625 C2.41666667,23.81625 7.724875,16.9166667 14.5,16.9166667 C18.7726667,16.9166667 20.2323333,17.758875 21.4068333,18.4379583 C22.1692917,18.8777917 22.9583333,19.3333333 24.1666667,19.3333333 C25.375,19.3333333 26.1640417,18.8777917 26.9265,18.4379583 C28.101,17.758875 29.5606667,16.9166667 33.8333333,16.9166667 C40.6084583,16.9166667 45.9166667,23.81625 45.9166667,32.625 C45.9166667,41.8989583 38.9155833,55.5833333 32.625,55.5833333 M33.8333333,14.5 C28.913,14.5 27.0666667,15.56575 25.7181667,16.3439167 C25.588875,16.4188333 25.4825417,16.4780417 25.375,16.53725 L25.375,13.2916667 C25.375,9.96029167 22.6647083,7.25 19.3333333,7.25 L14.5,7.25 C13.8317917,7.25 13.2916667,7.790125 13.2916667,8.45833333 C13.2916667,9.12654167 13.8317917,9.66666667 14.5,9.66666667 L19.3333333,9.66666667 C21.3319167,9.66666667 22.9583333,11.2930833 22.9583333,13.2916667 L22.9583333,16.53725 C22.8507917,16.4780417 22.7444583,16.4188333 22.6151667,16.3439167 C21.2666667,15.56575 19.4203333,14.5 14.5,14.5 C6.369125,14.5 0,22.4617083 0,32.625 C0,42.184125 7.34183333,58 15.7083333,58 C20.0619583,58 21.3415833,57.1735 22.4592917,56.176625 C22.91725,55.7694167 23.1262917,55.5833333 24.1666667,55.5833333 C25.2070417,55.5833333 25.4160833,55.7694167 25.8740417,56.176625 C26.99175,57.1735 28.271375,58 32.625,58 C40.9915,58 48.3333333,42.184125 48.3333333,32.625 C48.3333333,22.4617083 41.9642083,14.5 33.8333333,14.5" id="Fill-4374"></path>
                            <path d="M38.5805125,2.50282083 C38.0017208,6.8008625 34.5918042,10.2107792 30.2949708,10.7883625 C30.8725542,6.49152917 34.2824708,3.0816125 38.5805125,2.50282083 M28.9996375,13.2920292 C35.6623875,13.2920292 41.0829708,7.8702375 41.0829708,1.20869583 C41.0829708,0.5404875 40.5428458,0.0003625 39.8746375,0.0003625 C33.2130958,0.0003625 27.7913042,5.42094583 27.7913042,12.0836958 C27.7913042,12.7506958 28.3326375,13.2920292 28.9996375,13.2920292" id="Fill-4375"></path>
                        </g>
                    </g>
                </g>
            </g>
        </g>
    </g>
</svg>