<?xml version="1.0" encoding="UTF-8"?>
<svg width="56px" height="57px" viewBox="0 0 56 57" version="1.1" xmlns="http://www.w3.org/2000/svg" xmlns:xlink="http://www.w3.org/1999/xlink">
    <!-- Generator: sketchtool 50.2 (55047) - http://www.bohemiancoding.com/sketch -->
    <title>7C5C4C79-8FE1-4BD3-B72E-7741673CA3A5</title>
    <desc>Created with sketchtool.</desc>
    <defs></defs>
    <g id="Page-1" stroke="none" stroke-width="1" fill="none" fill-rule="evenodd">
        <g id="HCH_Our-Book-Page" transform="translate(-693.000000, -2761.000000)" stroke="#231F20" stroke-width="2">
            <g id="What's-Included" transform="translate(120.000000, 2314.000000)">
                <g id="Group-4-Copy">
                    <g id="Group-10" transform="translate(100.000000, 250.000000)">
                        <g id="pix_icon" transform="translate(474.000000, 198.000000)">
                            <polyline id="Stroke-1881" stroke-linejoin="round" points="35 36 27.782 17 21.479 31.1949906 15.174 23.4517102 8 36"></polyline>
                            <polygon id="Stroke-1882" points="44 44 0 44 0.044 0.043956044 44 0"></polygon>
                            <polyline id="Stroke-1883" stroke-linecap="round" points="47.9900747 16 53 16.4564624 49.5719464 54 12 50.5745384"></polyline>
                            <path d="M0,36 L44,36" id="Stroke-1884"></path>
                            <path d="M15,12 C15,14.21 13.209,16 11,16 C8.79,16 7,14.21 7,12 C7,9.792 8.79,8 11,8 C13.209,8 15,9.792 15,12 L15,12 Z" id="Stroke-1885" stroke-linejoin="round"></path>
                        </g>
                    </g>
                </g>
            </g>
        </g>
    </g>
</svg>