<?xml version="1.0" encoding="UTF-8"?>
<svg width="60px" height="61px" viewBox="0 0 60 61" version="1.1" xmlns="http://www.w3.org/2000/svg" xmlns:xlink="http://www.w3.org/1999/xlink">
    <!-- Generator: sketchtool 50.2 (55047) - http://www.bohemiancoding.com/sketch -->
    <title>B5ED8313-2E07-4DFA-AACA-CB3BB23BF20D</title>
    <desc>Created with sketchtool.</desc>
    <defs></defs>
    <g id="Page-1" stroke="none" stroke-width="1" fill="none" fill-rule="evenodd">
        <g id="HCH_Our-Book-Page" transform="translate(-690.000000, -2979.000000)">
            <g id="What's-Included" transform="translate(120.000000, 2314.000000)">
                <g id="Group-4-Copy">
                    <g id="Group-10" transform="translate(100.000000, 250.000000)">
                        <g id="hold-ipad_icon" transform="translate(471.000000, 416.000000)">
                            <path d="M40.1621,50.5 L3.0001,50.5 C1.3491,50.5 0.0001,49.15 0.0001,47.5 L0.0001,3.5 C0.0001,1.85 1.3491,0.5 3.0001,0.5 L39.0001,0.5 C40.6501,0.5 42.0001,1.85 42.0001,3.5 L42.0001,39.5" id="Stroke-3862" stroke="#000000" stroke-width="2" stroke-linecap="round"></path>
                            <polyline id="Stroke-3863" stroke="#000000" stroke-width="2" stroke-linecap="round" points="36 34.751 36 6.5 6 6.5 6 42.5 36 42.501 36 42.167"></polyline>
                            <path d="M58,58.5 L50,48.5 L50,36.5 C50,32.226 46.838,28.628 42,24.5" id="Stroke-3864" stroke="#000000" stroke-width="2" stroke-linecap="round"></path>
                            <path d="M44,41.5 L38,35.5 C37,34.5 35,34.5 34,35.5 C33,36.5 33,38.5 34,39.5 L40,47.5 L40,49.5 C40,52.5 45,58.5 45,58.5" id="Stroke-3865" stroke="#000000" stroke-width="2" stroke-linecap="round"></path>
                            <path d="M17,46.5 L25,46.5" id="Stroke-3866" stroke="#000000" stroke-width="2"></path>
                            <path d="M12,20.5 L30,20.5" id="Stroke-3867" stroke="#000000" stroke-width="2"></path>
                            <path d="M12,16.5 L30,16.5" id="Stroke-3868" stroke="#000000" stroke-width="2"></path>
                            <path d="M12,28.5 L30,28.5" id="Stroke-3869" stroke="#000000" stroke-width="2"></path>
                            <path d="M12,24.5 L30,24.5" id="Stroke-3870" stroke="#000000" stroke-width="2"></path>
                            <path d="M12,32.5 L30,32.5" id="Stroke-3871" stroke="#000000" stroke-width="2"></path>
                            <path d="M12,12.5 L22,12.5" id="Stroke-3872" stroke="#000000" stroke-width="2"></path>
                            <path d="M28,45.5 C27.447,45.5 27,45.948 27,46.5 C27,47.052 27.447,47.5 28,47.5 C28.552,47.5 29,47.052 29,46.5 C29,45.948 28.552,45.5 28,45.5" id="Fill-3873" fill="#000000"></path>
                            <path d="M14,45.5 C13.447,45.5 13,45.948 13,46.5 C13,47.052 13.447,47.5 14,47.5 C14.552,47.5 15,47.052 15,46.5 C15,45.948 14.552,45.5 14,45.5" id="Fill-3874" fill="#000000"></path>
                        </g>
                    </g>
                </g>
            </g>
        </g>
    </g>
</svg>