<?xml version="1.0" encoding="UTF-8"?>
<svg width="60px" height="60px" viewBox="0 0 60 60" version="1.1" xmlns="http://www.w3.org/2000/svg" xmlns:xlink="http://www.w3.org/1999/xlink">
    <!-- Generator: sketchtool 50.2 (55047) - http://www.bohemiancoding.com/sketch -->
    <title>C11BB3D6-398F-4632-9F2F-DDC7480F85D6</title>
    <desc>Created with sketchtool.</desc>
    <defs></defs>
    <g id="Page-1" stroke="none" stroke-width="1" fill="none" fill-rule="evenodd">
        <g id="HCH_Our-Book-Page" transform="translate(-398.000000, -2759.000000)">
            <g id="What's-Included" transform="translate(120.000000, 2314.000000)">
                <g id="Group-4-Copy">
                    <g id="Group-10" transform="translate(100.000000, 250.000000)">
                        <g id="plate-hand_icon" transform="translate(179.000000, 196.000000)">
                            <polygon id="Stroke-3345" stroke="#000000" stroke-width="2" stroke-linejoin="round" points="10 58 0 58 0 42 10 42"></polygon>
                            <path d="M10,56 L48,56 C48,52.217 39.087,50 29,50 L16,50" id="Stroke-3346" stroke="#000000" stroke-width="2" stroke-linecap="round" stroke-linejoin="round"></path>
                            <path d="M10,44 L16,44 C24,44 27.739,48.738 29,50" id="Stroke-3347" stroke="#000000" stroke-width="2" stroke-linejoin="round"></path>
                            <path d="M4,53 C3.447,53 3,53.447 3,54 C3,54.553 3.447,55 4,55 C4.553,55 5,54.553 5,54 C5,53.447 4.553,53 4,53" id="Fill-3348" fill="#000000"></path>
                            <polygon id="Stroke-3349" stroke="#000000" stroke-width="2" stroke-linecap="round" stroke-linejoin="round" points="56 32 2 32 7.565 38 50 38"></polygon>
                            <path d="M0,32 L58,32" id="Stroke-3350" stroke="#000000" stroke-width="2" stroke-linecap="round" stroke-linejoin="round"></path>
                            <path d="M53,32 C53,18.744 42.255,8 29,8 C15.745,8 5,18.744 5,32" id="Stroke-3351" stroke="#000000" stroke-width="2" stroke-linecap="round" stroke-linejoin="round"></path>
                            <path d="M14,22 C17.229,17.176 22.729,14 28.97,14" id="Stroke-3352" stroke="#000000" stroke-width="2" stroke-linecap="round" stroke-linejoin="round"></path>
                            <path d="M33,4 C33,6.209 31.209,8 29,8 C26.791,8 25,6.209 25,4 C25,1.791 26.791,0 29,0 C31.209,0 33,1.791 33,4 L33,4 Z" id="Stroke-3353" stroke="#000000" stroke-width="2" stroke-linecap="round" stroke-linejoin="round"></path>
                        </g>
                    </g>
                </g>
            </g>
        </g>
    </g>
</svg>