<?xml version="1.0" encoding="UTF-8"?>
<svg width="58px" height="54px" viewBox="0 0 58 54" version="1.1" xmlns="http://www.w3.org/2000/svg" xmlns:xlink="http://www.w3.org/1999/xlink">
    <!-- Generator: Sketch 50.2 (55047) - http://www.bohemiancoding.com/sketch -->
    <title>Chat Icons</title>
    <desc>Created with Sketch.</desc>
    <defs></defs>
    <g id="Symbols" stroke="none" stroke-width="1" fill="none" fill-rule="evenodd">
        <g id="Free-Cheat-Sheet" transform="translate(-911.000000, -1029.000000)" fill="#231F20">
            <g id="Icons+Text">
                <g transform="translate(196.000000, 1027.000000)">
                    <g id="5" transform="translate(679.000000, 2.000000)">
                        <g id="Chat-Icons" transform="translate(36.000000, 0.000000)">
                            <path d="M24.1666667,29 C23.8464583,29 23.5395417,29.126875 23.312375,29.3540417 L15.7083333,36.9580833 L15.7083333,30.2083333 C15.7083333,29.5413333 15.167,29 14.5,29 L10.875,29 C6.21083333,29 2.41666667,25.2058333 2.41666667,20.5416667 L2.41666667,10.875 C2.41666667,6.21083333 6.21083333,2.41666667 10.875,2.41666667 L35.0416667,2.41666667 C39.7058333,2.41666667 43.5,6.21083333 43.5,10.875 L43.5,20.5416667 C43.5,25.2058333 39.7058333,29 35.0416667,29 L24.1666667,29 Z M45.9166667,20.5416667 L45.9166667,10.875 C45.9166667,4.87925 41.0374167,0 35.0416667,0 L10.875,0 C4.87925,0 0,4.87925 0,10.875 L0,20.5416667 C0,26.5374167 4.87925,31.4166667 10.875,31.4166667 L13.2916667,31.4166667 L13.2916667,39.875 C13.2916667,40.3631667 13.5865,40.8042083 14.0372083,40.9915 C14.1870417,41.0543333 14.344125,41.0833333 14.5,41.0833333 C14.8141667,41.0833333 15.1235,40.9600833 15.3542917,40.7292917 L24.6669167,31.4166667 L35.0416667,31.4166667 C41.0374167,31.4166667 45.9166667,26.5374167 45.9166667,20.5416667 L45.9166667,20.5416667 Z" id="Fill-389"></path>
                            <path d="M50.75,26.5833333 C50.083,26.5833333 49.5416667,27.1246667 49.5416667,27.7916667 C49.5416667,28.4586667 50.083,29 50.75,29 C53.4155833,29 55.5833333,31.16775 55.5833333,33.8333333 L55.5833333,38.6666667 C55.5833333,41.33225 53.4155833,43.5 50.75,43.5 L47.125,43.5 C46.458,43.5 45.9166667,44.0413333 45.9166667,44.7083333 L45.9166667,49.0414167 L40.7292917,43.8540417 C40.502125,43.626875 40.1952083,43.5 39.875,43.5 L33.8333333,43.5 C31.16775,43.5 29,41.33225 29,38.6666667 C29,37.9996667 28.4586667,37.4583333 27.7916667,37.4583333 C27.1246667,37.4583333 26.5833333,37.9996667 26.5833333,38.6666667 C26.5833333,42.6650417 29.8349583,45.9166667 33.8333333,45.9166667 L39.37475,45.9166667 L46.2707083,52.812625 C46.5015,53.0434167 46.8108333,53.1666667 47.125,53.1666667 C47.280875,53.1666667 47.4379583,53.1376667 47.5877917,53.0748333 C48.0385,52.8875417 48.3333333,52.4465 48.3333333,51.9583333 L48.3333333,45.9166667 L50.75,45.9166667 C54.748375,45.9166667 58,42.6650417 58,38.6666667 L58,33.8333333 C58,29.8349583 54.748375,26.5833333 50.75,26.5833333" id="Fill-390"></path>
                        </g>
                    </g>
                </g>
            </g>
        </g>
    </g>
</svg>