<?xml version="1.0" encoding="UTF-8"?>
<svg width="400px" height="103px" viewBox="0 0 400 103" version="1.1" xmlns="http://www.w3.org/2000/svg" xmlns:xlink="http://www.w3.org/1999/xlink">
    <!-- Generator: Sketch 50.2 (55047) - http://www.bohemiancoding.com/sketch -->
    <title>LOGO_WWW</title>
    <desc>Created with Sketch.</desc>
    <defs></defs>
    <g id="Symbols" stroke="none" stroke-width="1" fill="none" fill-rule="evenodd">
        <g id="LOGO_WWW" fill="#1B1A19">
            <g>
                <polyline id="Fill-38" points="153.213836 85.0792638 153.213836 55.3956748 168.339623 55.3956748 168.339623 85.0792638 171.525157 85.0792638 171.525157 18.6758589 168.339623 18.6758589 168.339623 52.4352147 153.213836 52.4352147 153.213836 18.6758589 149.977987 18.6758589 149.977987 85.0792638 153.213836 85.0792638"></polyline>
                <polyline id="Fill-39" points="359.676101 55.3956748 374.801887 55.3956748 374.801887 84.9212883 377.987421 84.9212883 377.987421 18.6758589 374.801887 18.6758589 374.801887 52.4352147 359.676101 52.4352147 359.676101 18.6758589 356.440252 18.6758589 356.440252 84.9212883 359.676101 84.9212883 359.676101 55.3956748"></polyline>
                <polyline id="Fill-40" points="234.327044 29.3802761 251.084906 84.6748466 251.084906 84.987638 254.559748 84.987638 254.31761 84.1914417 254.31761 18.7580061 251.084906 18.7580061 251.084906 73.5217791 247.022013 60.1096626 245.72956 55.8506442 234.830189 18.7580061 231.09434 18.7580061 231.09434 84.987638 234.327044 84.987638 234.327044 29.3802761"></polyline>
                <polyline id="Fill-41" points="276.95283 29.3802761 293.710692 84.6748466 293.710692 84.987638 297.185535 84.987638 296.943396 84.1914417 296.943396 18.7580061 293.710692 18.7580061 293.710692 73.5217791 288.355346 55.8506442 277.45283 18.7580061 273.720126 18.7580061 273.720126 84.987638 276.95283 84.987638 276.95283 29.3802761"></polyline>
                <path d="M196.886792,55.3956748 L197.427673,52.4352147 L201.871069,28.0406442 L205.852201,52.4352147 L206.333333,55.3956748 L207.68239,63.6609509 L195.380503,63.6609509 L196.886792,55.3956748 Z M194.839623,66.6245706 L208.166667,66.6245706 L211.188679,85.1582515 L214.58805,85.1582515 L203.616352,17.9175767 L200.314465,17.8828221 L188.056604,85.1582515 L191.465409,85.1582515 L194.839623,66.6245706 Z" id="Fill-42"></path>
                <path d="M322.377358,55.3956748 L322.918239,52.4352147 L327.361635,28.0406442 L331.342767,52.4352147 L331.823899,55.3956748 L333.172956,63.6609509 L320.871069,63.6609509 L322.377358,55.3956748 Z M320.333333,66.6245706 L333.657233,66.6245706 L336.68239,85.1582515 L340.078616,85.1582515 L329.106918,17.9175767 L325.805031,17.8828221 L319.509434,52.4352147 L318.968553,55.3956748 L313.54717,85.1582515 L316.955975,85.1582515 L320.333333,66.6245706 Z" id="Fill-43"></path>
                <polyline id="Fill-44" points="104.053459 39.8129755 18.3742138 59.5061963 18.8710692 61.6957362 104.550314 42.0025153 104.053459 39.8129755"></polyline>
                <polyline id="Fill-45" points="22.0408805 31.5382209 31.1257862 31.5382209 31.1257862 48.7069939 33.5220126 48.7069939 33.5220126 21.5984049 31.1257862 21.5984049 31.1257862 29.6551534 22.0408805 29.6551534 22.0408805 21.5984049 19.6698113 21.5984049 19.6698113 50.9534049 22.0408805 50.9534049 22.0408805 31.5382209"></polyline>
                <polygon id="Fill-46" points="45.2358491 45.3389571 47.6069182 45.3389571 47.6069182 21.5984049 45.2358491 21.5984049"></polygon>
                <path d="M67.4308176,39.8824847 C69.9213836,39.8824847 72.009434,39.1147239 73.6918239,37.582362 C75.3773585,36.0468405 76.3396226,34.1100613 76.5849057,31.7720245 L76.5849057,29.8889571 L66.6383648,29.8889571 L66.6383648,31.7720245 L74.0849057,31.7720245 C73.8930818,33.6234969 73.2201258,35.0863497 72.0660377,36.1669018 C70.9119497,37.2506135 69.3836478,37.7908896 67.4842767,37.7908896 C65.581761,37.7908896 63.9937107,37.1368712 62.7201258,35.8288344 C61.4433962,34.5207975 60.8050314,32.792546 60.8050314,30.6472393 C60.8050314,28.5019325 61.4433962,26.7831595 62.7201258,25.4814417 C63.9937107,24.1828834 65.6132075,23.535184 67.5754717,23.535184 C70.091195,23.535184 71.8867925,24.552546 72.9654088,26.593589 L75.827044,26.593589 C75.1352201,24.9190491 74.0534591,23.6394479 72.5880503,22.7484663 C71.1194969,21.8606442 69.4496855,21.4151534 67.5754717,21.4151534 C64.9874214,21.4151534 62.8113208,22.2808589 61.0408805,24.018589 C59.2704403,25.7531595 58.3836478,27.9584969 58.3836478,30.6346012 C58.3836478,33.313865 59.2704403,35.522362 61.0408805,37.266411 C62.8113208,39.0104601 64.9402516,39.8824847 67.4308176,39.8824847" id="Fill-47"></path>
                <polyline id="Fill-48" points="89.7327044 28.170184 98.8176101 28.170184 98.8176101 32.9884356 101.213836 32.9884356 101.213836 21.5984049 98.8176101 21.5984049 98.8176101 26.2871166 89.7327044 26.2871166 89.7327044 21.5984049 87.3647799 21.5984049 87.3647799 35.2348466 89.7327044 35.2348466 89.7327044 28.170184"></polyline>
                <path d="M103.289308,74.9340798 C103.289308,78.3052761 101.91195,79.8755521 98.9559748,79.8755521 L94.7484277,79.8755521 L94.7484277,68.3875767 L98.2421384,68.3875767 C101.827044,68.3875767 103.289308,69.8409509 103.289308,73.4111963 L103.289308,74.9340798 Z M94.7484277,55.4114724 L98.7861635,55.4114724 C101.63522,55.4114724 102.745283,56.6784356 102.745283,59.9327301 L102.745283,61.8221166 C102.745283,65.6230061 101.031447,66.3433742 97.8679245,66.3433742 L94.7484277,66.3433742 L94.7484277,55.4114724 Z M101.54717,67.2343558 C103.921384,66.5297853 104.946541,64.7636196 104.946541,61.4429755 L104.946541,59.7652761 C104.946541,55.3419632 103.059748,53.3672699 98.8301887,53.3672699 L92.5471698,53.3672699 L92.5471698,81.9197546 L98.9559748,81.9197546 C103.289308,81.9197546 105.487421,79.5817178 105.487421,74.9783129 L105.487421,73.5375767 C105.487421,70.0968712 104.163522,67.98 101.54717,67.2343558 Z" id="Fill-49"></path>
                <path d="M26.8993711,71.6481902 C28.427673,71.6481902 29.4842767,72.2484969 30.1352201,73.477546 L30.2138365,73.6292025 L32.6509434,73.6292025 L32.4874214,73.2405828 C32.0188679,72.106319 31.2767296,71.224816 30.2798742,70.6213497 C29.2955975,70.0242025 28.1572327,69.7208896 26.8993711,69.7208896 C25.1603774,69.7208896 23.672956,70.3117178 22.4811321,71.4807362 C21.2861635,72.6529141 20.6792453,74.1568405 20.6792453,75.9577607 C20.6792453,77.758681 21.2861635,79.2689264 22.4811321,80.4442638 C23.672956,81.6196012 25.1603774,82.213589 26.8993711,82.213589 C28.1572327,82.213589 29.2955975,81.9102761 30.2798742,81.3131288 C31.2767296,80.7096626 32.0188679,79.8281595 32.4874214,78.6938957 L32.6509434,78.3052761 L30.2138365,78.3052761 L30.1352201,78.4569325 C29.8238994,79.0477607 29.3836478,79.5090491 28.8301887,79.8218405 C28.2704403,80.1409509 27.6194969,80.3020859 26.8993711,80.3020859 C25.7169811,80.3020859 24.7264151,79.9039877 23.9622642,79.1172699 C23.1949686,78.3305521 22.8050314,77.2689571 22.8050314,75.9672393 C22.8050314,74.6655215 23.1918239,73.6070859 23.9591195,72.8266871 C24.7264151,72.0462883 25.7138365,71.6481902 26.8993711,71.6481902" id="Fill-50"></path>
                <path d="M46.6289308,75.9798773 L49.927673,66.7098773 L53.2264151,75.9798773 L46.6289308,75.9798773 Z M48.663522,63.8347239 L42.1698113,81.7775767 L44.5660377,81.7775767 L45.9591195,77.8408282 L53.8962264,77.8408282 L55.2861635,81.7775767 L57.7106918,81.7775767 L51.2421384,63.8347239 L48.663522,63.8347239 Z" id="Fill-51"></path>
                <path d="M80.3899371,66.8173006 C80.3899371,70.889908 78.7201258,72.6118405 74.8616352,72.6118405 L70.7138365,72.6118405 L70.7138365,60.2707975 L75.4371069,60.2707975 C79.1509434,60.2707975 80.3899371,62.6214724 80.3899371,66.261227 L80.3899371,66.8173006 Z M75.4371069,58.2613497 L68.5220126,58.2613497 L68.5220126,81.6764724 L70.7138365,81.6764724 L70.7138365,74.6244479 L74.5786164,74.6244479 L79.091195,81.7491411 L82.0283019,81.7491411 L77.2358491,74.4380368 L77.0408805,74.4380368 C80.8207547,73.7682209 82.5849057,71.1932209 82.5849057,66.6719632 L82.5849057,66.4002454 C82.5849057,61.5156442 80.581761,58.2613497 75.4371069,58.2613497 Z" id="Fill-52"></path>
                <path d="M125.830189,100.756748 L397.726415,100.756748 L397.726415,2.28432515 L125.830189,2.28432515 L125.830189,100.756748 Z M2.39937107,100.756748 L123.58805,100.756748 L123.58805,2.28432515 L2.39937107,2.28432515 L2.39937107,100.756748 Z M125.830189,0.0379141104 L0.166666667,0.0379141104 L0.166666667,103 L399.959119,103 L399.959119,0.0379141104 L125.830189,0.0379141104 Z" id="Fill-53"></path>
            </g>
        </g>
    </g>
</svg>